<?xml version="1.0" standalone="no"?>
<!DOCTYPE svg PUBLIC "-//W3C//DTD SVG 20010904//EN"
 "http://www.w3.org/TR/2001/REC-SVG-20010904/DTD/svg10.dtd">
<svg version="1.0" xmlns="http://www.w3.org/2000/svg"
 width="1152.000000pt" height="1152.000000pt" viewBox="0 0 1152.000000 1152.000000"
 preserveAspectRatio="xMidYMid meet">
<metadata>
Created by potrace 1.11, written by Peter Selinger 2001-2013
</metadata>
<g transform="translate(0.000000,1152.000000) scale(0.100000,-0.100000)"
fill="#000000" stroke="none">
<path d="M8447 10119 c-154 -68 -507 -228 -1934 -875 -145 -65 -263 -121 -263
-124 0 -6 1184 -545 1989 -906 211 -95 389 -170 395 -168 11 4 28 47 51 126 4
16 11 25 16 22 5 -3 6 2 3 10 -4 9 -1 16 6 16 7 0 10 6 7 14 -3 8 -3 17 1 20
3 4 7 12 8 19 1 7 8 26 15 42 6 17 13 39 14 50 1 11 7 30 13 42 7 12 12 26 11
30 -1 4 0 10 1 13 1 3 3 13 5 23 2 10 7 26 11 35 3 9 8 31 11 47 4 36 11 70
13 70 2 0 10 44 14 85 2 19 7 51 11 70 13 71 16 130 17 330 1 182 -3 258 -18
365 -3 17 -6 46 -8 65 -2 19 -5 36 -6 38 -2 1 -3 10 -4 20 -1 9 -5 26 -9 37
-7 22 -19 83 -20 103 0 6 -4 12 -7 12 -4 0 -8 10 -8 23 -2 31 -7 55 -14 63 -4
3 -4 13 -1 22 5 11 3 13 -7 7 -10 -6 -12 -4 -7 8 3 9 0 29 -8 43 -8 15 -12 31
-9 36 3 4 0 8 -6 8 -6 0 -9 4 -5 10 3 5 1 17 -4 27 -21 40 -41 92 -41 107 0 9
-5 16 -11 16 -5 0 -8 4 -5 8 5 9 -23 72 -33 71 -3 0 -86 -36 -184 -80z"/>
<path d="M5400 9120 l0 -480 120 0 120 0 0 -120 0 -119 -32 -5 c-18 -3 -69 -8
-113 -11 -181 -13 -465 -88 -637 -168 -179 -83 -387 -239 -517 -388 -71 -82
-191 -249 -191 -267 0 -10 231 -44 455 -67 705 -72 1605 -72 2310 0 224 23
455 57 455 67 0 18 -120 185 -191 267 -130 149 -338 305 -517 388 -172 80
-456 155 -637 168 -44 3 -95 8 -112 11 l-33 5 0 119 0 120 120 0 120 0 0 158
0 159 -175 78 c-96 44 -175 82 -175 85 0 3 79 41 175 84 l175 79 0 158 0 159
-360 0 -360 0 0 -480z"/>
<path d="M3840 3928 l0 -3445 49 -46 c54 -51 186 -140 266 -179 286 -143 658
-223 1161 -249 274 -15 890 -6 1104 16 558 55 985 201 1213 413 l47 45 0 3445
0 3445 -32 -6 c-18 -4 -94 -18 -168 -32 -475 -90 -996 -129 -1720 -129 -724 0
-1245 39 -1720 129 -74 14 -150 28 -167 32 l-33 6 0 -3445z"/>
</g>
</svg>
